<?xml version="1.0" encoding="UTF-8"?> <svg xmlns="http://www.w3.org/2000/svg" xmlns:v="https://vecta.io/nano" viewBox="0 0 400 56"><path d="M40.7 11.4c-.2 0-.5 0-.7-.1s-.4 0-.5.1l-.8.3c-.3.1-.6 0-.9-.2a4.28 4.28 0 0 1-1.4-1.6c-.7-1.6-.9-3.3-.7-5 0-.2 0-.2-.2-.3-.3 0-.6-.1-.8-.1h-.1c-.1 0-.2.1-.3.1l-1 .3c-.3.1-.7.1-1.1.2h-1.4c-.8-.1-1.5-.4-2.2-.8-.8-.4-1.6-.9-2.3-1.5-.8-.6-1.5-1.3-2.1-2.1-.1-.2-.3-.2-.5-.3-.2 0-.4 0-.6-.1-.2 0-.2 0-.3.1-1.1 1.6-2.5 3.2-4 4.6-1.2 1.1-2.5 2-3.9 2.7l-1.7.8c-.4.2-.8.3-1.3.4l-1.2.3c-.2 0-.4.1-.6.1-.4.1-.8.2-1.3.2v.2c0 .2.1.5.1.7 0 1.2 0 2.5-.4 3.7l-.3 1c-.1.2-.2.5-.3.7-.3.6-.5 1.1-.9 1.7-1.1 1.8-2.6 3.1-4.6 3.9-.5.2-1 .3-1.6.4H.5h0c-.3 0-.1.1-.2 1.6.1 4.2.7 9.1 2.3 13.9.2.5.4 1.1.6 1.7.4 1 .8 2 1.3 3 .7 1.5 1.5 3 2.5 4.4.6.8 1.2 1.6 1.8 2.3 1.9 2.2 4.1 3.8 6.1 4.8l.1.1c.5.3 1 .5 1.5.7.2.1.4.1.6.2.1 0 .1 0 .1.1.8.3 1.7.6 2.4.7.1 0 .2.1.3.1s.3.1.4.1h.2c.3.1.6.1.9.2h0c.2.1 1.9.3 2.2.2.5-.2.9-.6 1.2-1.1.2-.2 2.2-2.9 2.6-3.5 1.5-2 2.9-4 4.1-6.2a62.82 62.82 0 0 0 2.7-5.1c1.4-3.1 2.6-6.2 3.6-9.5.8-2.6 1.4-5.3 1.9-8.1.2-1.1.3-2.2.5-3.4.1-1.2.3-2.4.4-3.6.1-.6.1-1.2.1-1.9s0-1.4.1-2c.1-.1 0-.1-.1-.1zm-3.9 14.4c-.2.7-.3 1.5-.5 2.2-.1.5-.3 1-.4 1.5-.1.4-.2.9-.3 1.3-.2.5-.3 1.1-.5 1.6-.2.7-.5 1.4-.7 2.1-.1.3-.2.5-.3.7-.1.3-.2.5-.3.8l-.3.9c-.2.5-.5 1.1-.7 1.6-.1.3-.3.6-.4.8v.1c-.2.4-.4.9-.7 1.3-.1.2-.2.3-.3.5-.2.4-.4.8-.7 1.2-.3.5-.5.9-.8 1.4-.1.3-.3.5-.5.7-.2.3-.3.5-.5.8-.1.2-.3.4-.4.7-.1.2-.3.4-.4.6-.1.1-.2.2-.2.4-.1.1-.1.2-.2.3l-.1.1c-1.4 2.1-2.4 3.2-2.9 3.8l-.2.2s0 .1-.1.1c-.2.2-.3.2-.3.2v-.2-.7-1.6-3.3-3.2-6.4h0l.1-5.7-13.5 5.2-2.2.9h0-.1-.1c-.1 0-.1-.2-.2-.4 0-.2-.1-.5-.1-.8-.1-.3-.1-.5-.2-.8s-.2-.7-.3-1v-.1c-.1-.3-.1-.7-.2-1-.1-.4-.2-.8-.2-1.3-.1-.1-.1-.3-.1-.4 0-.5-.1-.9-.1-1.3-.1-.4-.1-.9-.2-1.3-.1-.6-.1-1.2-.1-1.8 0-.4-.1-.8-.1-1.2 0-.2.2-.5.4-.5H7c.2-.2.4-.3.6-.4l.1-.1c.3-.1.4-.3.6-.4.8-.5 1.4-1.3 2-1.9.3-.3.5-.6.8-1l.6-.9c.1-.2.3-.5.4-.7.3-.6.7-1.2 1-1.8.2-.3.3-.7.4-1.1.1-.3.2-.6.3-.8.1-.3.2-.5.2-.8.1-.3.2-.6.2-.9 0-.1 0-.3.1-.4 0-.1.1-.2.2-.2.3-.1.6-.1.9-.2.4-.1.7-.2 1.1-.4.5-.2.9-.4 1.4-.6.1 0 .2-.1.2-.1.2-.1.3-.2.5-.3h.1c.2-.2.4-.3.6-.5.1-.1.3-.2.4-.3.4-.3.7-.6 1.1-.9.2-.2.5-.3.7-.6.3-.4.7-.6 1-1s.6-.7 1-1.1c.2-.2.3-.4.5-.6 0-.1.1-.2.1-.2h.3l-.1 24c.4-.2.8-.3 1.2-.5.3-.1.6-.3.9-.4s.6-.3.9-.4c.4-.2.8-.3 1.2-.5s.8-.3 1.1-.5c.5-.2 1-.4 1.6-.7.5-.2 1.1-.4 1.6-.6s1.1-.4 1.6-.7c.5-.2 1.1-.4 1.6-.6.2-.1.4-.1.6-.2h.3c0 .1 0 .2-.1.3z"></path><path d="M36.6 25.5c-.2.1-.4.1-.6.2l-1.6.6-1.6.7-1.6.6-1.6.7c-.4.2-.8.3-1.1.5-.4.2-.8.3-1.2.5-.3.1-.6.3-.9.4s-.6.3-.9.4c-.4.2-.8.3-1.2.5l.1-24h-.3c-.1-.1-.1 0-.1.1-.2.2-.3.4-.5.6-.3.4-.7.7-1 1.1s-.7.7-1 1c-.2.2-.5.4-.7.6-.3.3-.7.6-1.1.9-.1.1-.3.2-.4.3-.2.2-.4.3-.6.5h-.1c-.2.1-.3.2-.5.3-.1 0-.2.1-.2.1l-1.4.6c-.4.1-.7.3-1.1.4-.3.1-.6.1-.9.2-.1 0-.2.1-.2.2s0 .3-.1.4c-.1.3-.2.6-.2.9-.1.3-.1.5-.2.8s-.2.6-.3.8c-.1.4-.2.7-.4 1.1l-1 1.8c-.1.2-.3.5-.4.7l-.6.9c-.3.3-.5.7-.8 1-.7.7-1.2 1.4-2 1.9-.2.1-.3.4-.6.4l-.1.1c-.2.2-.5.2-.6.4h-.1c-.2 0-.4.3-.4.5 0 .4.1.8.1 1.2 0 .6 0 1.2.1 1.8.1.4.1.9.2 1.3 0 .5.1.9.1 1.4 0 .1 0 .3.1.4.1.4.2.8.2 1.3.1.3.1.7.2 1v.1l.3 1s.1.5.2.8.2.6.2.9a.76.76 0 0 0 .2.4h.1.1 0l2.2-.9 13.5-5.2-.1 5.7h0v6.4V46v3.3 1.6.7.2s.1-.1.3-.2c.1-.1.2-.1.3-.2.5-.6 1.5-1.7 2.9-3.8.2-.2.3-.5.5-.8l2-3.2c.6-.9 1.1-1.9 1.5-2.7.2-.4.4-.9.7-1.3v-.1a43.99 43.99 0 0 0 1.5-3.3l.3-.8c.1-.2.2-.5.3-.7.3-.7.5-1.4.7-2.1a9.83 9.83 0 0 0 .5-1.6l.3-1.3c.1-.5.3-1 .4-1.5.2-.7.3-1.5.5-2.2v-.4c-.1-.1-.2-.2-.3-.1z" fill="#fff"></path><path d="M90.2 55.4h-5.9L76.1 9.5l-8.2 45.8h-5.8L52.1.6h5.2L65 45.7 73.4.6h5.4l8.6 45.1L94.9.6h5.2l-9.9 54.8zm17.9 0V.6H132v6.9h-18.7v16.4h15v6.7h-15v17.8h18.8v6.9h-24zm48.8 0h-15V.6h13.8c7.1 0 11.8 4.2 11.8 13.3 0 6.8-2.4 11.1-8 13.2h.5c5 0 8.9 5.3 8.9 13.2.1 8.3-3.1 15.1-12 15.1zm-1.2-48.2h-8.6V24h8.2c4.5 0 7.1-3.7 7.1-8.9 0-5.1-1.9-7.9-6.7-7.9zm0 23.3h-8.6v18.2h9.5c4.9 0 7.1-3.9 7.1-9.4.1-5.6-2.4-8.8-8-8.8zm59.8-16.6c-2.1-3.9-6.7-8.1-11-8.1-4.7 0-7.5 3-7.5 8.7 0 4.9 2 7.6 8.8 9.9 8.8 3 12.5 6.5 12.5 16.1 0 8.5-4 15.7-12.5 15.7-6.2 0-11.6-3.8-15.4-11.5l3.3-5c3.1 5.9 7.2 10.3 12.4 10.3 4.6 0 7-3.9 7-9 0-4.9-2.3-7.1-6.9-8.5-9-2.8-14.4-6.7-14.4-18.2 0-8.4 4.4-14.7 12.8-14.7 5.2 0 9.8 3.2 13.7 9l-2.8 5.3zm12.7 41.5V.6H252v6.9h-18.7v16.4h15v6.7h-15v17.8h18.8v6.9h-23.9zm57.6 0l-18.9-42.2v42.2H262V.6h4.8L285.6 43V.6h4.9v54.7h-4.7zM315 7.7v47.7h-5.2V7.7h-12.1V.6h29.4v7.1H315zm42 47.7c-1-2.5-1.6-5.7-2.2-9.2l-1.5-9c-.5-2.5-1.6-3.8-3.3-3.8h-10.5v22h-5.2V.6H351c8.4 0 11.7 7.4 11.7 15 0 8.6-4 13.5-9.5 14.6 4.3.5 5.2 3.9 6.4 11.7.9 6 1.6 9.9 3.2 13.5H357zm-7-47.9h-10.5v19.1H350c5.2 0 7.5-4.8 7.5-10.2.1-5.3-2.1-8.9-7.5-8.9zM393.3.6h6L386.1 33v22.3h-5.3V33L367.6.6h6l9.9 25.1L393.3.6z"></path></svg> 